<svg xmlns="http://www.w3.org/2000/svg" viewBox="0 0 32 32">
    <path fill="#ff69b4" d="M16,2 C8.268,2 2,8.268 2,16 C2,23.732 8.268,30 16,30 C23.732,30 30,23.732 30,16 C30,8.268 23.732,2 16,2 z"/>
    <!-- Hello Kitty 脸部轮廓 -->
    <path fill="#ffffff" d="M16,5 C11,5 7,9 7,14 C7,19 11,23 16,23 C21,23 25,19 25,14 C25,9 21,5 16,5 z"/>
    <!-- 眼睛 -->
    <circle fill="#000000" cx="13" cy="13" r="1.5"/>
    <circle fill="#000000" cx="19" cy="13" r="1.5"/>
    <!-- 鼻子 -->
    <circle fill="#ffb6c1" cx="16" cy="15" r="1"/>
    <!-- 胡须 -->
    <path stroke="#000000" stroke-width="0.5" fill="none" d="M14,15 L11,14 M14,16 L11,16 M14,17 L11,18"/>
    <path stroke="#000000" stroke-width="0.5" fill="none" d="M18,15 L21,14 M18,16 L21,16 M18,17 L21,18"/>
    <!-- 蝴蝶结 -->
    <path fill="#ff0000" d="M16,7 C15,7 14,8 14,9 C14,10 15,11 16,11 C17,11 18,10 18,9 C18,8 17,7 16,7 z"/>
</svg> 